<svg id="Layer_1" data-name="Layer 1" xmlns="http://www.w3.org/2000/svg" xmlns:xlink="http://www.w3.org/1999/xlink" viewBox="0 0 361.13 319.52"><defs><linearGradient id="linear-gradient" x1="405.32" y1="214.56" x2="178.37" y2="188.25" gradientUnits="userSpaceOnUse"><stop offset="0.01"/><stop offset="0.13" stop-opacity="0.69"/><stop offset="0.25" stop-opacity="0.32"/><stop offset="1" stop-opacity="0"/></linearGradient><linearGradient id="linear-gradient-2" x1="229.67" y1="193.59" x2="309.35" y2="39.58" xlink:href="#linear-gradient"/><linearGradient id="linear-gradient-3" x1="199.55" y1="140.68" x2="59.9" y2="315.81" xlink:href="#linear-gradient"/><linearGradient id="linear-gradient-4" x1="131.56" y1="217.44" x2="159.68" y2="13.83" xlink:href="#linear-gradient"/><linearGradient id="linear-gradient-5" x1="108.98" y1="236.16" x2="196.74" y2="173.11" xlink:href="#linear-gradient"/><linearGradient id="linear-gradient-6" x1="147.51" y1="181.14" x2="150.61" y2="64.86" xlink:href="#linear-gradient"/><linearGradient id="linear-gradient-7" x1="296.59" y1="220.04" x2="302.66" y2="218.89" xlink:href="#linear-gradient"/><linearGradient id="linear-gradient-8" x1="284.15" y1="207.95" x2="320.9" y2="200.97" xlink:href="#linear-gradient"/><linearGradient id="linear-gradient-9" x1="290.82" y1="192.28" x2="334.76" y2="183.94" xlink:href="#linear-gradient"/></defs><title>14</title><path d="M398,135.22c-2.69,17.24-19.66,24.64-27.36,38.77-9.24,17-6.22,38.93-8.74,57.43a94.6,94.6,0,0,1-2.26,11.28c-.24.94-.5,1.87-.77,2.79a101.21,101.21,0,0,1-6.3,16.15l-.33.69c-15.46,31-46.12,54.69-79.88,64.54C228.1,339.79,179.93,332,137,315q-4.44-1.74-8.83-3.7c-.72-.31-1.43-.62-2.14-1-1.48-.67-2.94-1.36-4.4-2.06-19.26-9.36-37-22.12-46.74-40.83-10-19.19-10.25-42.25-5.51-63.38,1.73-7.69,4.08-15.54,2.67-23.28-1.84-10.08-9.58-17.82-15.75-26a93.33,93.33,0,0,1-16.7-37.41c-3.9-19.11-2-39.37,6.56-56.91,14.57-29.9,48.4-49.78,81.47-46.27C147.6,16.31,165.81,26,184.55,33.12a178.2,178.2,0,0,0,28.33,8.05c28.67,5.8,58.26,5.89,86.92,9.34a217.53,217.53,0,0,1,39.64,8.05q2.49.78,4.95,1.65C377.09,71.75,403.83,98,398,135.22Z" transform="translate(-37.7 -13.79)" fill="#68e1fd" opacity="0.18" style="isolation:isolate"/><path d="M293.08,201.12a46.14,46.14,0,0,0,6.13,8.37,49.9,49.9,0,0,0-6,8c-.67,1.12-1.33,2.43-1,3.68a3.46,3.46,0,0,0,3.42,2.19,9.94,9.94,0,0,0,4.14-1.27l11.56-5.47a18,18,0,0,1,4.21-1.24,2.51,2.51,0,0,1,.55-.07,4,4,0,0,1,1.64.65c1.6.85,3.51.93,5.2,1.59a14.84,14.84,0,0,0,2.09.82,2.32,2.32,0,0,0,2.12-.45,2.13,2.13,0,0,0,.43-2,6.3,6.3,0,0,0-1-1.9,18,18,0,0,0-1.36-1.88c-.45-.52-1-1-1.37-1.54a6.64,6.64,0,0,1-1-2.06c-.21-.75.38-1.21.81-1.78l3.18-4.18a3.66,3.66,0,0,0,1-2.31,2.51,2.51,0,0,0-1.8-2.06,8.35,8.35,0,0,0-2.87-.26c-2.42,0-5-.19-7-1.63-3.4-2.48-3.58-7.34-4.55-11.44-.35-1.5-1.48-3.32-2.94-2.85a2.83,2.83,0,0,0-1.11.83,17.79,17.79,0,0,0-3.77,6.29c-1.2,3.49-2.06,7.51-6.59,7.37-1.16,0-3.05-1-4.16-.48C291.17,197,292.29,199.75,293.08,201.12Z" transform="translate(-37.7 -13.79)" fill="url(#linear-gradient)"/><path d="M259.15,126.44a1.08,1.08,0,0,0-.77.19c-.33.29-.22.83-.05,1.24a8.5,8.5,0,0,0,1.58,2.52c.15.17.32.36.27.58s-.34.34-.59.4l-4.74,1.09a33.19,33.19,0,0,1-5.31.94c-1.86.12-3.73-.06-5.58.1a30.9,30.9,0,0,0-8.32,2.33l-5,1.91c-1.16.45-2.43,1-2.92,2.13a3.31,3.31,0,0,0,.44,3,14.53,14.53,0,0,0,2.11,2.33,18.78,18.78,0,0,1,3.72,5.48,1.27,1.27,0,0,1,.15.76,1.7,1.7,0,0,1-.39.64c-1.11,1.47-.44,3.6.57,5.13,2.08,3.14,5.92,5.48,9.56,4.51,2.17-.58,3.91-2.22,6-3-.36,2.08-.71,4.29.11,6.23a8.43,8.43,0,0,0,2.41,3,18.27,18.27,0,0,0,9.58,4.22c2.63.32,5.59-.07,7.37-2s1.85-5.08,1.76-7.82a8.93,8.93,0,0,0,4.24-.63,1.61,1.61,0,0,0,.75-.53,1.77,1.77,0,0,0,.19-.79,29.23,29.23,0,0,0,.09-4.86c-.63-6.44-5.54-11.79-6.55-18.19a1.58,1.58,0,0,1,2.18.12,8.12,8.12,0,0,1,1.29,2.06,2.48,2.48,0,0,0,1.84,1.44c1.36-1.25,1.05-3.61-.16-5a10.46,10.46,0,0,0-4.8-2.65,5.41,5.41,0,0,0-2.53-.4,1.91,1.91,0,0,0-1.71,1.66,2.93,2.93,0,0,0,.59,1.53,42.57,42.57,0,0,1,6.25,19.34c-2.24-.36-4-2.22-6.22-2.7-2.47-.53-5,.73-7.51.74a2.16,2.16,0,0,1-1.07-.21,3.44,3.44,0,0,1-1-1.21c-1.47-2.26-4.73-2.6-6.55-4.57a26.71,26.71,0,0,1-1.75-2.55c-1.51-2.08-3.92-3.29-5.92-4.91a1.29,1.29,0,0,1-.56-.82c0-.46.43-.79.83-1a35.74,35.74,0,0,1,15.45-4.56c2.11-.12,5.81-.28,6.06-3.12C264.88,127.82,261.23,126.5,259.15,126.44Z" transform="translate(-37.7 -13.79)" fill="url(#linear-gradient-2)"/><path d="M121,181.39a2.49,2.49,0,0,0-1,2.66c.14.48.42.91.58,1.38.73,2.16-1.14,4.23-1.87,6.38-.82,2.4-.18,5.1-.9,7.54-.52,1.79-1.77,3.5-1.41,5.33s2.11,2.91,3.83,3.44,3.58.7,5.17,1.55a16.93,16.93,0,0,1,3.74,3.24,30,30,0,0,0,12.78,7.5,7.12,7.12,0,0,1,2.51,1,9.18,9.18,0,0,1,1.5,1.77c3.41,4.42,9.67,5.35,14.17,8.66,1.6,1.18,3,2.7,4.95,3.27a11.21,11.21,0,0,0,3.75.24,3.44,3.44,0,0,0,1.71-.39,3.39,3.39,0,0,0,1.15-2.18c1.67-7.23,2.63-14.61,3.58-22a7.09,7.09,0,0,0,0-2.43c-.4-1.93-2.24-3.17-4-4.09-8.48-4.46-18.23-6-26.87-10.14A114.78,114.78,0,0,1,132.28,187c-2-1.25-3.93-2.5-6-3.63C125.43,182.87,121.7,180.89,121,181.39Z" transform="translate(-37.7 -13.79)" fill="url(#linear-gradient-3)"/><path d="M104.45,96.13a23.92,23.92,0,0,0-2.14,23.69,7.84,7.84,0,0,1,1.16,3.81c-.08,1-.63,2-.73,3a6.82,6.82,0,0,0,.9,3.38c2.77,6,5.68,11.66,10.55,16.24,4.7,4.4,14.16,5,20.3,4.58a8.94,8.94,0,0,0,2.25-.34,10.27,10.27,0,0,0,3.61-2.29,69.75,69.75,0,0,0,11-12.11c1-1.41,2.15-3,3.85-3.26a6.35,6.35,0,0,1,2,.1c8.83,1.38,19.34,2.66,28.08.26a8.18,8.18,0,0,0,3.55-1.75c2.34-2.23,1.85-6,1.07-9.17-1.68-6.79-4.36-14.06-10.44-17.52-1.74,3.76-6.26,5.13-10.07,6.77-6.46,2.78-12,7.36-18.17,10.68s-13.75,5.35-20.21,2.59c-4-1.7-7-5-9.35-8.63a27.86,27.86,0,0,1-4.69-14.68,18.83,18.83,0,0,1,5.79-14C116,90,112.28,97.57,112.15,104.75s2.65,14.06,5.61,20.6c-9.05-3.39-15.2-13.53-13.52-23,1.51-8.57,10.06-16.4,19-15.94A24.23,24.23,0,0,0,104.45,96.13Z" transform="translate(-37.7 -13.79)" fill="url(#linear-gradient-4)"/><path d="M117.43,120.1c.58.31,1.19.75,1.84.6s.93-.72,1.47-1c1-.43,2,.31,2.76,1.05s1.59,1.63,2.64,1.52c1.39-.15,2.08-1.93,3.44-2.24,2.27-.5,3.77,3.35,6,2.86,1.27-.27,2.32-1.89,3.5-1.34.76.35,1,1.48,1.84,1.63s1.27-.53,1.95-.67c1-.19,1.78.63,2.55,1.22s2.11.89,2.56,0c.13-.26.17-.6.42-.74a.83.83,0,0,1,.77.09l2.16,1c.61-1.9,1.58-4.13,3.56-4.39a6.9,6.9,0,0,0,1.3-.15c2-.68,1.19-4.62,3.26-5,.48-.08,1,.09,1.45,0,1.36-.14,1.95-1.73,2.33-3s1.27-2.86,2.61-2.64c.5.07,1,.41,1.48.24a1.5,1.5,0,0,0,.67-.67l1.8-2.78a2.24,2.24,0,0,0,3,.47,5.84,5.84,0,0,0,2-2.64,8.53,8.53,0,0,1,1.83-2.82c.4.45,1.16.3,1.68,0a4,4,0,0,1,1.6-.81c.61,0,1.26.65.89,1.13a2,2,0,0,1,2.91.79,3.24,3.24,0,0,1-.54,3.27,9.4,9.4,0,0,1-2.71,2.17c-5.3,3.25-10.65,6.5-15.28,10.65-4,3.58-7.65,8-12.79,9.47a8.71,8.71,0,0,1-4,.32,21.92,21.92,0,0,1-3.15-1c-3.45-1.2-7.18-1.16-10.83-1.11l-15.29.21c-3.27,0-10-.51-11.66-4.28-.78-1.8,1.26-1.65,2.63-1.37,1.6.33,1.9.08,3.43-.39A5.11,5.11,0,0,1,117.43,120.1Z" transform="translate(-37.7 -13.79)" fill="#68e1fd" opacity="0.31"/><path d="M121.85,180.22a1.64,1.64,0,0,1,1.07-.17c1.58.11,3.15.33,4.71.57,7.1,1,14.42,2.26,21.36.46a14.73,14.73,0,0,1,3.06-.63c1.91-.08,3.8.81,5.7.52,2.15-.32,3.8-2.07,5.85-2.8,2.3-.82,4.9-.3,7.23-1a19.22,19.22,0,0,0,3.32-1.62,25.33,25.33,0,0,1,10.59-2.94,10.58,10.58,0,0,0,3.56-.5,18,18,0,0,0,2.58-1.67c3.49-2.26,8-1.69,12.13-.92-1.15,1.81-3.29,2.71-5.29,3.5l-8.5,3.34a71.93,71.93,0,0,0-7.78,3.42c-2.88,1.55-5.55,3.48-8.47,4.94-9,4.52-19.65,4.17-29.74,3.72a14.64,14.64,0,0,1-4.89-.77c-.67-.26-1.29-.62-2-.85a12.55,12.55,0,0,0-4.54-.35c-2.59.09-5.72.06-8-1.45C122.9,184.34,120.35,181.23,121.85,180.22Z" transform="translate(-37.7 -13.79)" fill="#68e1fd" opacity="0.31"/><path d="M119,202.7c-.94.67-1.93,1.69-1.64,2.81s1.62,1.53,2.75,1.7a30.06,30.06,0,0,0,6.9.23,7.16,7.16,0,0,0,7.72,6.08,2.68,2.68,0,0,1,1.26,0c.58.22.87.85,1.16,1.4a9,9,0,0,0,8.2,4.68,2.23,2.23,0,0,1,1,.08,2.08,2.08,0,0,1,.81.85,21.9,21.9,0,0,0,3.53,4.63,7.47,7.47,0,0,0,5.25,2.18,3.23,3.23,0,0,1,2.14.25c.52.4.63,1.12.89,1.72a4.66,4.66,0,0,0,3.91,2.52,13.86,13.86,0,0,0,4.8-.69,6.63,6.63,0,0,0,2.74,4.1,1.08,1.08,0,0,0,.79.24,1,1,0,0,0,.53-.44c1.25-1.78.6-4.35-.83-6s-3.48-2.58-5.41-3.58c-7.19-3.73-13.56-8.88-20.63-12.84-5.82-3.26-12.07-5.7-18.17-8.4a12.06,12.06,0,0,1-3.56-2.77c-.79-.74-.29-.73-1.48-.41A10,10,0,0,0,119,202.7Z" transform="translate(-37.7 -13.79)" fill="#68e1fd" opacity="0.31"/><path d="M215.11,191.15c1.08.42,2.28,1.17,2.28,2.32s-1.19,1.88-2.24,2.32a29.87,29.87,0,0,1-6.63,1.94,7.17,7.17,0,0,1-6,7.8,2.67,2.67,0,0,0-1.22.32,2.54,2.54,0,0,0-.77,1.64,9,9,0,0,1-6.8,6.56,2.17,2.17,0,0,0-1,.34,2,2,0,0,0-.57,1,22.3,22.3,0,0,1-2.28,5.36,7.44,7.44,0,0,1-4.55,3.4c-.72.15-1.55.2-2,.78a4,4,0,0,0-.43,1.89,4.65,4.65,0,0,1-3.17,3.4,13.7,13.7,0,0,1-4.82.52,6.65,6.65,0,0,1-1.65,4.65,1,1,0,0,1-.71.43,1,1,0,0,1-.62-.29c-1.64-1.42-1.66-4.07-.67-6s2.73-3.35,4.35-4.8c6-5.39,10.95-12,16.82-17.54,4.84-4.61,10.29-8.51,15.54-12.63a11.92,11.92,0,0,0,2.75-3.57c.59-.91.1-.78,1.34-.76A10.07,10.07,0,0,1,215.11,191.15Z" transform="translate(-37.7 -13.79)" fill="#68e1fd" opacity="0.31"/><path d="M121.66,308.27c16-2.83,32.74-2.2,48.81-5.18,18.8-3.49,36.43-11.92,52.35-22.51a59.15,59.15,0,0,1,8.79-5.22c5-2.19,10.64-2.69,16.1-3.38a222.56,222.56,0,0,0,39.43-8.58c10.32-3.26,20.75-7.32,31.56-6.7,6.65.38,13.06,2.48,19.71,2.79,4.72.22,10.12-.95,14.19,2.15-.11.24-.22.46-.34.69-15.45,31-46.12,54.69-79.87,64.54C228.09,339.79,179.93,332,137,315c-3-1.16-5.9-2.39-8.82-3.7-.72-.31-1.43-.63-2.14-1Q123.84,309.33,121.66,308.27Z" transform="translate(-37.7 -13.79)" fill="#68e1fd" opacity="0.37"/><path d="M304.37,266.46a7.92,7.92,0,0,1,1.34,4.07,19.52,19.52,0,0,1-1.64,7.45C303.17,274.2,303,270,304.37,266.46Z" transform="translate(-37.7 -13.79)" fill="#fff"/><path d="M126.06,310.33a9.39,9.39,0,0,0,2.66-3.56c.42-1.14.47-2.44,1.18-3.41a5.24,5.24,0,0,1,2.49-1.61c9.3-3.44,19.69.13,29.55-1,13.76-1.6,24.69-12,33.91-22.36,5.84-6.53,12.85-13.88,21.59-13.2,3.58.27,6.94,1.94,10.52,2.17,11.36.73,20.12-12.68,31.45-11.61,6.12.57,12.19,5.4,17.84,2.94,2.08-.9,3.63-2.66,5.24-4.27,12.82-12.77,33.56-16.84,50.26-9.84,6.5,2.72,10.88,4.41,17.95,3,2-.41,5.32-1.81,8.2-2.08a101.27,101.27,0,0,1-6.64,16.84c-1.61,0-3.3-.15-5.07-.3-4.43-.38-10,.59-11.32,4.84a14.1,14.1,0,0,0-17.62-4.5c-3.19-3.63-9.69-2.28-12.53,1.65a11.21,11.21,0,0,0-1.35,2.44,5.3,5.3,0,0,0-2.55-2,8.78,8.78,0,0,0-4.69,0,41.38,41.38,0,0,0-12,4.45c-2.75,1.55-5.38,3.43-8.45,4.12s-6.8-.2-8.23-3c-2.08,3.44-5,7.35-9,6.95-3.73-.37-6.64-4.51-10.34-3.89-5.5.94-5.26,10.75-10.7,12-3.56.81-8.12-2.57-10.45.22-1.17,1.39-.73,3.61.45,5A11.72,11.72,0,0,0,233,293l19.64,7.92c10.88,4.39,22.68,9.59,27.9,20.09L213.7,295.2a14,14,0,0,0-5.61-1.32,12.26,12.26,0,0,0-5.47,2C191.71,302.24,183.31,313,171.33,317c4.17-11.31,19.11-15,24.94-25.56-11.94,8.06-24.84,16.42-39.25,16.46-5.36,0-10.72-1.14-16.06-.76a28.24,28.24,0,0,0-12.76,4.19C127.48,311,126.77,310.66,126.06,310.33Z" transform="translate(-37.7 -13.79)" fill="#fff"/><path d="M107.39,122.8S90.7,97.62,119.61,88s61,15.51,61,15.51" transform="translate(-37.7 -13.79)" fill="none" stroke="#fff" stroke-miterlimit="10" stroke-width="3"/><path d="M123,123.52s-12.59-23.5,0-36.43" transform="translate(-37.7 -13.79)" fill="none" stroke="#fff" stroke-miterlimit="10" stroke-width="3"/><path d="M214.75,191.71c-4.55,2.73-9.86,5.38-14,8.67-5.56,4.4-10.4,9.62-15.22,14.81A96,96,0,0,0,178,224c-.32.45-.64.9-1,1.36-1.57,2.33-3,4.77-4.36,7.21-.29,0-11-7.65-12-8.32q-6.26-4.07-12.74-7.77a220.13,220.13,0,0,0-26.55-13,1.36,1.36,0,0,1-.68-.46,1.33,1.33,0,0,1-.13-.71,42,42,0,0,1,3.37-16.16c.45-1.06,1.22-3.74,2.06-4.43l.16-.1c.76-.4,2.57-.19,4,0,.59.08,1.13.15,1.49.17l5.94.34,11.89.67c5.85.33,11.79.66,17.51-.6,9.15-2,17-7.89,25.87-10.85,2.44-.81,5.2-1.38,7.51-.25,1.78.86,3,2.58,4.07,4.23Q209.78,183.42,214.75,191.71Z" transform="translate(-37.7 -13.79)" fill="#68e1fd"/><path d="M177.47,224c-.15.46-.3.91-.46,1.37-1.57,2.33-3,4.77-4.36,7.21-.29,0-11-7.65-12-8.32q-6.26-4.07-12.74-7.77a220.13,220.13,0,0,0-26.55-13,1.36,1.36,0,0,1-.68-.46,1.33,1.33,0,0,1-.13-.71,42,42,0,0,1,3.37-16.16c.45-1.06,1.22-3.74,2.06-4.43l.16-.1c.76-.4,2.57-.19,4,0-.42.53-1,1-1.39,1.49a14.14,14.14,0,0,0-2.48,4.39,127.53,127.53,0,0,0,15.88.35c-1.61,1.32-3.86,1.5-5.94,1.47s-4.26-.22-6.19.57-3.51,2.93-2.84,4.91l2,0-2.1,1.65a1.22,1.22,0,0,0-.54.71,1.2,1.2,0,0,0,.42.9c4.15,4.57,9.88,7.3,15.34,10.17a158.87,158.87,0,0,1,27.95,18.49,1.81,1.81,0,0,0,1,.52,1.79,1.79,0,0,0,1-.31Z" transform="translate(-37.7 -13.79)" fill="url(#linear-gradient-5)"/><path d="M192.74,121.94c-.37,3.49-2.89,6.32-5.3,8.89a9.73,9.73,0,0,1-2.68,2.24,9.27,9.27,0,0,1-3.62.66,86.26,86.26,0,0,1-21.79-2c-2.3-.51-4.88-1.09-6.9.15a8.65,8.65,0,0,0-2.33,2.45c-2.43,3.34-4.92,6.8-8.47,8.9-3.1,1.83-6.74,2.47-10.32,2.88-4.88.55-10,.71-14.53-1.11-4-1.61-7.61-5.56-9.8-9.23a12.44,12.44,0,0,1-.51-11.85,2.58,2.58,0,0,1,.9-1.11,3.06,3.06,0,0,1,1.8-.25l13.79,1,24.49,1.71a13.7,13.7,0,0,0,2,0c2-.15,3-1,5-2.71q2.44-2.08,4.92-4.1,1.14-.94,2.28-1.86,7.28-5.88,14.86-11.36c1.19-.86,2.51-1.76,4-1.67s2.69,1.16,3.74,2.2c.61.6,1.24,1.26,1.88,2,.28.31.57.64.85,1C190.25,112.43,193.24,117.24,192.74,121.94Z" transform="translate(-37.7 -13.79)" fill="#68e1fd"/><path d="M192.74,121.94c-.37,3.49-2.89,6.32-5.3,8.89a9.73,9.73,0,0,1-2.68,2.24,9.27,9.27,0,0,1-3.62.66,86.26,86.26,0,0,1-21.79-2c-2.3-.51-4.88-1.09-6.9.15a8.65,8.65,0,0,0-2.33,2.45c-2.43,3.34-4.92,6.8-8.47,8.9-3.1,1.83-6.74,2.47-10.32,2.88-4.88.55-10,.71-14.53-1.11-4-1.61-7.61-5.56-9.8-9.23a12.44,12.44,0,0,1-.51-11.85,2.58,2.58,0,0,1,.9-1.11,3.06,3.06,0,0,1,1.8-.25l13.79,1a19.74,19.74,0,0,1-10.72,3,9.37,9.37,0,0,0,1.87,2.38l-1.91-.49c0,2.53,1.9,4.67,3.94,6.18a22.54,22.54,0,0,0,15.19,4.27,23.4,23.4,0,0,0,14.33-6.68,12,12,0,0,0,3.8-7c2-.15,3-1,5-2.71q2.44-2.08,4.92-4.1a.1.1,0,0,0,0,0c-.77,2.64-1.26,5.82.77,7.6a7.24,7.24,0,0,0,2.8,1.32q4,1.2,8,2.14a13.46,13.46,0,0,0,5.66.47c2.82-.54,5.05-2.73,6.65-5.12a23.66,23.66,0,0,0,3.79-10.49,24.32,24.32,0,0,0,0-5.72C190.25,112.43,193.24,117.24,192.74,121.94Z" transform="translate(-37.7 -13.79)" fill="url(#linear-gradient-6)"/><circle cx="223.72" cy="144.6" r="10.42" fill="#68e1fd"/><circle cx="201.39" cy="135.4" r="10.42" fill="#68e1fd"/><circle cx="223.72" cy="144.6" r="9.02" fill="#473f47"/><circle cx="201.39" cy="135.4" r="9.02" fill="#473f47"/><path d="M248.68,150s4.65-2.32,4.65,2.68" transform="translate(-37.7 -13.79)" fill="none" stroke="#fff" stroke-linecap="round" stroke-miterlimit="10" stroke-width="2"/><path d="M271.28,160.63a1.89,1.89,0,0,0,2.78-.33,4.51,4.51,0,0,0,.64-3.07c-.42-6.71-4.74-12.48-6.86-18.87-1.47-4.43-1.9-9.25-4.17-13.33a2.77,2.77,0,0,0-.91-1.09,3,3,0,0,0-1.53-.29,5.24,5.24,0,0,0-3.45.79c-.92.78-1,2.58.16,3" transform="translate(-37.7 -13.79)" fill="none" stroke="#fff" stroke-linecap="round" stroke-miterlimit="10" stroke-width="2"/><path d="M231.4,143.15l-2.49-3c-.59-.72-1.21-1.75-.67-2.5a2.09,2.09,0,0,1,1.19-.67,78.6,78.6,0,0,1,17.06-3.63,101,101,0,0,1,12.3.08l8.83.42a38.8,38.8,0,0,1,5.49.53,8.35,8.35,0,0,1,4.07,1.79,4,4,0,0,1,1.23,4.07,2.61,2.61,0,0,1-3.64,1.44" transform="translate(-37.7 -13.79)" fill="none" stroke="#fff" stroke-linecap="round" stroke-miterlimit="10" stroke-width="2"/><path d="M398,135.22c-2.69,17.24-19.66,24.64-27.36,38.77-9.24,17-6.22,38.93-8.74,57.43a94.6,94.6,0,0,1-2.26,11.28c-6.68-7.53-11.15-17.94-13.34-27.9-3.92-17.77-4-37.06-13.74-52.44a76.89,76.89,0,0,1-17.49,10.13c-1.37.57-3,1.09-4.28.39-1.47-.78-1.83-2.68-2.05-4.33a272.94,272.94,0,0,0-19-70.12c-2.92-6.93-6.27-14-11.84-19-4-3.65-9-6.07-13.83-8.45L227.5,53.1c-5.49-2.69-11.61-7-14.62-11.93,28.67,5.8,58.26,5.89,86.92,9.34a217.53,217.53,0,0,1,39.64,8.05q2.49.78,4.95,1.65C377.09,71.75,403.83,98,398,135.22Z" transform="translate(-37.7 -13.79)" fill="#68e1fd" opacity="0.18" style="isolation:isolate"/><path d="M332.28,196.66a12.48,12.48,0,0,1-2.18,2.24l-8.32,7.17,8.76,10.08c.18.2.36.46.27.7a.67.67,0,0,1-.29.31c-1.86,1.17-4.26.18-6.26-.73a64.33,64.33,0,0,0-7.74-2.91,8.61,8.61,0,0,0-4.39-.48c-1.63.39-2.9,1.6-4.24,2.6a28.8,28.8,0,0,1-8.35,4l-1.29.42-.21.07-1.4.42a8.09,8.09,0,0,1,.81-6.33c1-2,2.37-3.69,3.37-5.64a1.39,1.39,0,0,0,.2-.71,1.42,1.42,0,0,0-.47-.79,42.88,42.88,0,0,1-7.91-12.16c-.48-1.11-.82-2.61.12-3.36a1.72,1.72,0,0,1,1.6-.24,5.9,5.9,0,0,1,1.84,1,21.09,21.09,0,0,0,4.28,2.72,8.38,8.38,0,0,0,3,.74,3.08,3.08,0,0,0,1.4-.22c1.2-.5,1.27-1.69,1.41-2.83a18.49,18.49,0,0,1,3.42-8.79c.28-.38,3.25-4,3.62-3.67a3.44,3.44,0,0,1,.44.41c1.62,1.65,2,4.25,2,6.61,0,2.56-.27,5.26.86,7.56a22.51,22.51,0,0,0,12.26-.5,6.3,6.3,0,0,1,2.21-.47,1.78,1.78,0,0,1,1.69,1.25A2.13,2.13,0,0,1,332.28,196.66Z" transform="translate(-37.7 -13.79)" fill="#68e1fd"/><path d="M298.25,220l1.64-.94-.35.52Z" transform="translate(-37.7 -13.79)" fill="url(#linear-gradient-7)"/><path d="M299.17,201.5c2.17,2.22,3.91,4.6,6.08,6.82a2.58,2.58,0,0,1-1,1.36A20.49,20.49,0,0,0,298,220.11l-1.4.42a8.09,8.09,0,0,1,.81-6.33c1-2,2.37-3.69,3.37-5.64a1.39,1.39,0,0,0,.2-.71,1.42,1.42,0,0,0-.47-.79,42.88,42.88,0,0,1-7.91-12.16c-.48-1.11-.82-2.61.12-3.36a1.72,1.72,0,0,1,1.6-.24,7.85,7.85,0,0,0,1,5.52A23.09,23.09,0,0,0,299.17,201.5Z" transform="translate(-37.7 -13.79)" fill="url(#linear-gradient-8)"/><path d="M309.5,189.23c-.26,2.25.83,4.62.05,6.75a1.13,1.13,0,0,1-.37.56,1.25,1.25,0,0,1-.69.14,15.86,15.86,0,0,1-5-.92,3.08,3.08,0,0,0,1.4-.22c1.2-.5,1.27-1.69,1.41-2.83a18.49,18.49,0,0,1,3.42-8.79c.28-.38,3.25-4,3.62-3.67a3.44,3.44,0,0,1,.44.41v0C312.77,183.74,309.87,186.05,309.5,189.23Z" transform="translate(-37.7 -13.79)" fill="url(#linear-gradient-9)"/><circle cx="156.29" cy="173.93" r="3.47" fill="#fff"/><circle cx="149.35" cy="191.11" r="3.47" fill="#fff"/><circle cx="134.78" cy="183.12" r="3.47" fill="#fff"/><circle cx="148.99" cy="106.64" r="2.64" fill="#fff"/><circle cx="103.45" cy="118.09" r="2.64" fill="#fff"/><circle cx="136.19" cy="102.2" r="2.64" fill="#fff"/><circle cx="142.16" cy="114.46" r="2.64" fill="#fff"/><circle cx="75.97" cy="124.37" r="2.64" fill="#fff"/><circle cx="125.3" cy="113.61" r="2.64" fill="#fff"/><circle cx="83.69" cy="115.45" r="2.64" fill="#fff"/><circle cx="89.8" cy="128.15" r="2.64" fill="#fff"/><circle cx="131.3" cy="200.18" r="3.47" fill="#fff"/><circle cx="119.55" cy="182.56" r="3.47" fill="#fff"/><circle cx="113.92" cy="193.23" r="3.47" fill="#fff"/><circle cx="99.98" cy="182.56" r="3.47" fill="#fff"/></svg>